<svg height="574" width="720" xmlns="http://www.w3.org/2000/svg">
<rect height="574" fill="#555" width="720"></rect>
<text fill="#7f7" font-family="Courier New" font-size="12" xml:space="preserve">
<tspan x="10" y="26">10 megabytes installed</tspan>
<tspan x="10" y="42"></tspan>
<tspan x="10" y="58">node_modules</tspan>
<tspan x="10" y="74">└─┬ power-assert@1.4.2 </tspan>
<tspan x="10" y="90">  ├─┬ define-properties@1.1.2 </tspan>
<tspan x="10" y="106">  │ ├── foreach@2.0.5 </tspan>
<tspan x="10" y="122">  │ └── object-keys@1.0.11 </tspan>
<tspan x="10" y="138">  ├─┬ empower@1.2.1 </tspan>
<tspan x="10" y="154">  │ ├── core-js@2.4.1 </tspan>
<tspan x="10" y="170">  │ └─┬ empower-core@0.6.1 </tspan>
<tspan x="10" y="186">  │   └── call-signature@0.0.2 </tspan>
<tspan x="10" y="202">  ├─┬ power-assert-formatter@1.4.1 </tspan>
<tspan x="10" y="218">  │ ├─┬ power-assert-context-formatter@1.1.1 </tspan>
<tspan x="10" y="234">  │ │ └── power-assert-context-traversal@1.1.1 </tspan>
<tspan x="10" y="250">  │ ├─┬ power-assert-context-reducer-ast@1.1.2 </tspan>
<tspan x="10" y="266">  │ │ ├── acorn@4.0.11 </tspan>
<tspan x="10" y="282">  │ │ ├── acorn-es7-plugin@1.1.7 </tspan>
<tspan x="10" y="298">  │ │ ├── espurify@1.7.0 </tspan>
<tspan x="10" y="314">  │ │ └── estraverse@4.2.0 </tspan>
<tspan x="10" y="330">  │ ├─┬ power-assert-renderer-assertion@1.1.1 </tspan>
<tspan x="10" y="346">  │ │ ├── power-assert-renderer-base@1.1.1 </tspan>
<tspan x="10" y="362">  │ │ └─┬ power-assert-util-string-width@1.1.1 </tspan>
<tspan x="10" y="378">  │ │   └── eastasianwidth@0.1.1 </tspan>
<tspan x="10" y="394">  │ ├─┬ power-assert-renderer-comparison@1.1.1 </tspan>
<tspan x="10" y="410">  │ │ ├── diff-match-patch@1.0.0 </tspan>
<tspan x="10" y="426">  │ │ ├─┬ stringifier@1.3.0 </tspan>
<tspan x="10" y="442">  │ │ │ └── traverse@0.6.6 </tspan>
<tspan x="10" y="458">  │ │ └── type-name@2.0.2 </tspan>
<tspan x="10" y="474">  │ ├── power-assert-renderer-diagram@1.1.2 </tspan>
<tspan x="10" y="490">  │ └── power-assert-renderer-file@1.1.1 </tspan>
<tspan x="10" y="506">  ├─┬ universal-deep-strict-equal@1.2.2 </tspan>
<tspan x="10" y="522">  │ ├── array-filter@1.0.0 </tspan>
<tspan x="10" y="538">  │ └── indexof@0.0.1 </tspan>
<tspan x="10" y="554">  └── xtend@4.0.1</tspan>
</text>
</svg>
